<mxfile host="app.diagrams.net" modified="2023-04-11T07:04:01.585Z" agent="Mozilla/5.0 (Windows NT 10.0; Win64; x64) AppleWebKit/537.36 (KHTML, like Gecko) Chrome/112.0.0.0 Safari/537.36" version="21.1.5" etag="_ypqDT-vsZhFUnzCV4IU" type="github">
  <diagram name="Page-1" id="_55kmS-vTb9Noh3D25ZZ">
    <mxGraphModel>
      <root>
        <mxCell id="0" />
        <mxCell id="1" parent="0" />
      </root>
    </mxGraphModel>
  </diagram>
</mxfile>
